<?xml version="1.0" encoding="UTF-8" standalone="no"?>
<!-- Created with Inkscape (http://www.inkscape.org/) -->

<svg
   xmlns:dc="http://purl.org/dc/elements/1.1/"
   xmlns:cc="http://creativecommons.org/ns#"
   xmlns:rdf="http://www.w3.org/1999/02/22-rdf-syntax-ns#"
   xmlns:svg="http://www.w3.org/2000/svg"
   xmlns="http://www.w3.org/2000/svg"
   xmlns:sodipodi="http://sodipodi.sourceforge.net/DTD/sodipodi-0.dtd"
   xmlns:inkscape="http://www.inkscape.org/namespaces/inkscape"
   id="svg2"
   version="1.1"
   inkscape:version="0.47pre4 r22446"
   width="1875"
   height="765"
   xml:space="preserve"
   sodipodi:docname="labs logo2.ai"><metadata
     id="metadata8"><rdf:RDF><cc:Work
         rdf:about=""><dc:format>image/svg+xml</dc:format><dc:type
           rdf:resource="http://purl.org/dc/dcmitype/StillImage" /><dc:title></dc:title></cc:Work></rdf:RDF></metadata><defs
     id="defs6"><inkscape:perspective
       sodipodi:type="inkscape:persp3d"
       inkscape:vp_x="0 : 0.5 : 1"
       inkscape:vp_y="0 : 1000 : 0"
       inkscape:vp_z="1 : 0.5 : 1"
       inkscape:persp3d-origin="0.5 : 0.33333333 : 1"
       id="perspective10" /><clipPath
       clipPathUnits="userSpaceOnUse"
       id="clipPath18"><path
         d="M 0,612 1500,612 1500,0 0,0 0,612 z"
         id="path20" /></clipPath><clipPath
       clipPathUnits="userSpaceOnUse"
       id="clipPath62"><path
         d="M 0,612 1500,612 1500,0 0,0 0,612 z"
         id="path64" /></clipPath><clipPath
       clipPathUnits="userSpaceOnUse"
       id="clipPath106"><path
         d="m 224.81,321.431 137.995,0 0,-191.261 -137.995,0 0,191.261 z"
         id="path108" /></clipPath><clipPath
       clipPathUnits="userSpaceOnUse"
       id="clipPath122"><path
         d="m 371.25,188.667 49.291,0 0,-30.204 -49.291,0 0,30.204 z"
         id="path124" /></clipPath><clipPath
       clipPathUnits="userSpaceOnUse"
       id="clipPath126"><path
         d="m 418.258,188.667 -45.81,-6.439 1.085,-23.765 45.81,6.439 -1.085,23.765 z"
         id="path128" /></clipPath></defs><sodipodi:namedview
     pagecolor="#ffffff"
     bordercolor="#666666"
     borderopacity="1"
     objecttolerance="10"
     gridtolerance="10"
     guidetolerance="10"
     inkscape:pageopacity="0"
     inkscape:pageshadow="2"
     inkscape:window-width="640"
     inkscape:window-height="490"
     id="namedview4"
     showgrid="false"
     inkscape:zoom="0.2864"
     inkscape:cx="937.5"
     inkscape:cy="375.51676"
     inkscape:window-x="0"
     inkscape:window-y="25"
     inkscape:window-maximized="0"
     inkscape:current-layer="g12" /><g
     id="g12"
     inkscape:groupmode="layer"
     inkscape:label="labs logo2"
     transform="matrix(1.25,0,0,-1.25,0,765)"><g
       id="g14"><g
         id="g16"
         clip-path="url(#clipPath18)"><g
           id="g22"
           transform="translate(652.9897,281.2109)"><path
             d="m 0,0 c 0,-1.465 -0.062,-2.699 -0.183,-3.699 -0.123,-1.002 -0.306,-1.83 -0.549,-2.49 -0.246,-0.659 -0.55,-1.135 -0.916,-1.428 -0.366,-0.293 -0.794,-0.44 -1.282,-0.44 l -43.432,0 c -1.612,0 -2.967,0.477 -4.065,1.428 -1.099,0.953 -1.648,2.502 -1.648,4.65 l 0,86.061 c 0,0.487 0.158,0.926 0.476,1.318 0.317,0.39 0.842,0.707 1.575,0.952 0.732,0.244 1.721,0.44 2.966,0.586 1.245,0.146 2.794,0.22 4.651,0.22 1.904,0 3.466,-0.074 4.687,-0.22 1.22,-0.146 2.198,-0.342 2.93,-0.586 0.732,-0.245 1.256,-0.562 1.575,-0.952 0.317,-0.392 0.476,-0.831 0.476,-1.318 l 0,-76.246 29.809,0 c 0.488,0 0.916,-0.135 1.282,-0.402 0.366,-0.27 0.67,-0.709 0.916,-1.319 C -0.489,5.504 -0.306,4.699 -0.183,3.699 -0.062,2.697 0,1.465 0,0"
             style="fill:#373536;fill-opacity:1;fill-rule:nonzero;stroke:none"
             id="path24" /></g><g
           id="g26"
           transform="translate(748.0234,308.457)"><path
             d="m 0,0 c 0,-5.813 -0.854,-11.012 -2.563,-15.602 -1.71,-4.589 -4.224,-8.47 -7.544,-11.644 -3.321,-3.176 -7.422,-5.592 -12.305,-7.252 -4.883,-1.658 -10.498,-2.49 -16.845,-2.49 -5.958,0 -11.305,0.746 -16.04,2.234 -4.737,1.488 -8.742,3.746 -12.012,6.775 -3.272,3.028 -5.775,6.799 -7.507,11.317 -1.734,4.515 -2.601,9.801 -2.601,15.855 l 0,57.642 c 0,0.488 0.147,0.927 0.44,1.319 0.293,0.39 0.817,0.707 1.575,0.952 0.756,0.244 1.745,0.439 2.966,0.586 1.22,0.146 2.783,0.22 4.687,0.22 1.855,0 3.394,-0.074 4.615,-0.22 1.219,-0.147 2.197,-0.342 2.929,-0.586 0.733,-0.245 1.257,-0.562 1.575,-0.952 0.317,-0.392 0.476,-0.831 0.476,-1.319 l 0,-55.956 c 0,-3.762 0.464,-7.021 1.392,-9.778 0.927,-2.759 2.258,-5.042 3.991,-6.849 1.733,-1.807 3.809,-3.162 6.226,-4.065 2.417,-0.904 5.114,-1.355 8.093,-1.355 3.027,0 5.737,0.465 8.13,1.393 2.392,0.925 4.419,2.281 6.08,4.064 1.658,1.781 2.94,3.979 3.845,6.592 0.903,2.611 1.354,5.578 1.354,8.898 l 0,57.056 c 0,0.488 0.147,0.927 0.439,1.319 0.293,0.39 0.807,0.707 1.54,0.952 0.732,0.244 1.72,0.439 2.965,0.586 1.245,0.146 2.794,0.22 4.652,0.22 1.854,0 3.38,-0.074 4.577,-0.22 1.196,-0.147 2.161,-0.342 2.893,-0.586 0.733,-0.245 1.245,-0.562 1.538,-0.952 C -0.146,57.762 0,57.323 0,56.835 L 0,0 z"
             style="fill:#373536;fill-opacity:1;fill-rule:nonzero;stroke:none"
             id="path28" /></g><g
           id="g30"
           transform="translate(856.7549,279.8926)"><path
             d="M 0,0 C 0,-1.125 -0.196,-2.125 -0.586,-3.004 -0.978,-3.883 -1.502,-4.615 -2.161,-5.201 -2.82,-5.787 -3.603,-6.215 -4.505,-6.482 -5.409,-6.75 -6.325,-6.885 -7.251,-6.885 l -8.203,0 c -1.711,0 -3.187,0.17 -4.432,0.512 -1.245,0.342 -2.392,0.965 -3.442,1.869 -1.051,0.902 -2.064,2.123 -3.04,3.662 -0.977,1.537 -2.076,3.526 -3.295,5.969 l -23.584,44.311 c -1.368,2.637 -2.76,5.48 -4.176,8.533 -1.416,3.05 -2.685,6.017 -3.808,8.899 l -0.147,0 c 0.195,-3.516 0.342,-7.02 0.44,-10.511 0.097,-3.491 0.146,-7.093 0.146,-10.803 l 0,-49.585 c 0,-0.489 -0.135,-0.928 -0.402,-1.319 -0.27,-0.39 -0.733,-0.72 -1.392,-0.988 -0.659,-0.269 -1.551,-0.477 -2.673,-0.623 -1.125,-0.146 -2.564,-0.219 -4.322,-0.219 -1.709,0 -3.125,0.073 -4.248,0.219 -1.123,0.146 -2.002,0.354 -2.637,0.623 -0.635,0.268 -1.074,0.598 -1.318,0.988 -0.244,0.391 -0.365,0.83 -0.365,1.319 l 0,85.181 c 0,2.294 0.67,4.015 2.013,5.163 1.342,1.147 2.99,1.722 4.944,1.722 l 10.328,0 c 1.854,0 3.416,-0.16 4.687,-0.476 1.269,-0.319 2.405,-0.843 3.406,-1.575 1,-0.733 1.94,-1.747 2.819,-3.04 0.879,-1.294 1.782,-2.893 2.711,-4.797 l 18.457,-34.644 c 1.072,-2.1 2.135,-4.163 3.185,-6.189 1.049,-2.027 2.063,-4.053 3.039,-6.079 0.977,-2.026 1.929,-4.016 2.858,-5.969 0.926,-1.954 1.83,-3.907 2.709,-5.86 l 0.074,0 c -0.146,3.418 -0.257,6.983 -0.33,10.694 -0.073,3.711 -0.109,7.252 -0.109,10.62 l 0,44.458 c 0,0.487 0.146,0.927 0.439,1.319 0.293,0.39 0.779,0.732 1.465,1.025 0.683,0.293 1.586,0.5 2.709,0.622 1.123,0.122 2.564,0.184 4.322,0.184 1.658,0 3.051,-0.062 4.174,-0.184 1.123,-0.122 1.989,-0.329 2.601,-0.622 0.61,-0.293 1.037,-0.635 1.281,-1.025 C -0.123,86.107 0,85.667 0,85.18 L 0,0 z"
             style="fill:#373536;fill-opacity:1;fill-rule:nonzero;stroke:none"
             id="path32" /></g><g
           id="g34"
           transform="translate(918.5391,349.8384)"><path
             d="m 0,0 -0.073,0 m 43.579,-69.506 c 0.586,-1.758 0.952,-3.151 1.098,-4.176 0.147,-1.026 -0.048,-1.793 -0.585,-2.307 -0.539,-0.511 -1.491,-0.83 -2.857,-0.951 -1.367,-0.121 -3.248,-0.184 -5.64,-0.184 -2.49,0 -4.431,0.038 -5.822,0.11 -1.392,0.074 -2.454,0.221 -3.186,0.439 -0.733,0.221 -1.245,0.524 -1.538,0.916 -0.293,0.391 -0.538,0.903 -0.733,1.537 l -6.372,19.043 -18.08,52.001 -17.516,-52.001 -6.005,-18.529 c -0.196,-0.685 -0.453,-1.258 -0.769,-1.721 -0.318,-0.464 -0.831,-0.832 -1.539,-1.099 -0.708,-0.268 -1.709,-0.451 -3.002,-0.549 -1.295,-0.098 -2.992,-0.147 -5.091,-0.147 -2.246,0 -4.004,0.073 -5.273,0.219 -1.271,0.147 -2.15,0.5 -2.637,1.063 -0.488,0.56 -0.659,1.355 -0.513,2.381 0.147,1.025 0.513,2.39 1.099,4.101 l 29.224,84.082 c 0.293,0.829 0.633,1.501 1.025,2.014 0.391,0.513 1.013,0.903 1.867,1.172 0.855,0.267 2.039,0.439 3.553,0.512 1.513,0.074 3.515,0.11 6.006,0.11 2.881,0 5.175,-0.036 6.884,-0.11 1.709,-0.073 3.04,-0.245 3.993,-0.512 0.951,-0.269 1.634,-0.672 2.05,-1.209 0.415,-0.538 0.769,-1.27 1.062,-2.197 l 29.297,-84.008 z"
             style="fill:#373536;fill-opacity:1;fill-rule:nonzero;stroke:none"
             id="path36" /></g><g
           id="g38"
           transform="translate(1048.6445,360.019)"><path
             d="m 0,0 c 0,-1.417 -0.062,-2.625 -0.183,-3.625 -0.123,-1.002 -0.305,-1.808 -0.549,-2.417 -0.246,-0.612 -0.55,-1.062 -0.915,-1.355 -0.368,-0.293 -0.77,-0.44 -1.209,-0.44 l -23.731,0 0,-76.391 c 0,-0.488 -0.159,-0.928 -0.476,-1.318 -0.318,-0.393 -0.842,-0.709 -1.575,-0.954 -0.732,-0.244 -1.72,-0.439 -2.966,-0.585 -1.245,-0.147 -2.795,-0.219 -4.651,-0.219 -1.856,0 -3.406,0.072 -4.65,0.219 -1.246,0.146 -2.235,0.341 -2.967,0.585 -0.732,0.245 -1.258,0.561 -1.574,0.954 -0.319,0.39 -0.477,0.83 -0.477,1.318 l 0,76.391 -23.73,0 c -0.489,0 -0.905,0.147 -1.245,0.44 -0.342,0.293 -0.635,0.743 -0.879,1.355 -0.245,0.609 -0.428,1.415 -0.55,2.417 -0.122,1 -0.183,2.208 -0.183,3.625 0,1.465 0.061,2.71 0.183,3.735 0.122,1.026 0.305,1.843 0.55,2.454 0.244,0.61 0.537,1.049 0.879,1.318 0.34,0.268 0.756,0.403 1.245,0.403 l 66.797,0 c 0.439,0 0.841,-0.135 1.209,-0.403 C -1.282,7.238 -0.978,6.799 -0.732,6.189 -0.488,5.578 -0.306,4.761 -0.183,3.735 -0.062,2.71 0,1.465 0,0"
             style="fill:#373536;fill-opacity:1;fill-rule:nonzero;stroke:none"
             id="path40" /></g><g
           id="g42"
           transform="translate(1126.0273,280.6973)"><path
             d="m 0,0 c 0,-1.416 -0.062,-2.6 -0.183,-3.551 -0.123,-0.953 -0.305,-1.722 -0.549,-2.308 -0.246,-0.586 -0.55,-1.014 -0.915,-1.282 -0.368,-0.269 -0.77,-0.402 -1.209,-0.402 l -47.608,0 c -1.611,0 -2.967,0.477 -4.064,1.428 -1.1,0.953 -1.649,2.502 -1.649,4.65 l 0,82.618 c 0,2.148 0.549,3.699 1.649,4.651 1.097,0.952 2.453,1.428 4.064,1.428 l 47.315,0 c 0.439,0 0.83,-0.123 1.171,-0.366 0.341,-0.245 0.634,-0.672 0.879,-1.282 0.245,-0.611 0.427,-1.392 0.549,-2.344 0.122,-0.952 0.184,-2.16 0.184,-3.625 0,-1.368 -0.062,-2.527 -0.184,-3.479 -0.122,-0.952 -0.304,-1.721 -0.549,-2.307 -0.245,-0.586 -0.538,-1.015 -0.879,-1.282 -0.341,-0.269 -0.732,-0.403 -1.171,-0.403 l -33.838,0 0,-23.144 28.637,0 c 0.44,0 0.843,-0.136 1.208,-0.403 0.368,-0.269 0.671,-0.685 0.916,-1.245 0.245,-0.562 0.427,-1.319 0.549,-2.271 0.122,-0.952 0.184,-2.113 0.184,-3.479 0,-1.417 -0.062,-2.589 -0.184,-3.516 -0.122,-0.928 -0.304,-1.673 -0.549,-2.233 -0.245,-0.562 -0.548,-0.965 -0.916,-1.208 -0.365,-0.247 -0.768,-0.368 -1.208,-0.368 l -28.637,0 0,-26.732 34.131,0 c 0.439,0 0.841,-0.135 1.209,-0.402 0.365,-0.27 0.669,-0.698 0.915,-1.284 C -0.488,5.273 -0.306,4.506 -0.183,3.553 -0.062,2.602 0,1.416 0,0"
             style="fill:#373536;fill-opacity:1;fill-rule:nonzero;stroke:none"
             id="path44" /></g><g
           id="g46"
           transform="translate(1216.374,287.5098)"><path
             d="m 0,0 c 0,-1.221 -0.037,-2.26 -0.109,-3.113 -0.075,-0.856 -0.184,-1.588 -0.33,-2.198 -0.147,-0.611 -0.342,-1.134 -0.586,-1.574 -0.246,-0.439 -0.635,-0.941 -1.172,-1.502 -0.538,-0.562 -1.574,-1.281 -3.114,-2.16 -1.537,-0.879 -3.418,-1.721 -5.638,-2.527 -2.223,-0.805 -4.762,-1.477 -7.617,-2.014 -2.858,-0.537 -5.946,-0.807 -9.266,-0.807 -6.494,0 -12.354,1.002 -17.578,3.004 -5.226,2.002 -9.668,4.993 -13.33,8.973 -3.662,3.979 -6.471,8.945 -8.423,14.904 -1.953,5.956 -2.93,12.891 -2.93,20.801 0,8.056 1.073,15.209 3.223,21.46 2.148,6.249 5.151,11.499 9.009,15.747 3.856,4.248 8.483,7.47 13.879,9.668 5.395,2.197 11.34,3.296 17.835,3.296 2.636,0 5.174,-0.22 7.617,-0.66 2.441,-0.439 4.699,-1.014 6.774,-1.721 2.075,-0.708 3.943,-1.527 5.604,-2.453 1.659,-0.929 2.82,-1.722 3.478,-2.381 0.66,-0.659 1.111,-1.208 1.356,-1.648 0.244,-0.439 0.439,-1.001 0.586,-1.684 0.146,-0.685 0.255,-1.491 0.33,-2.417 0.072,-0.929 0.109,-2.077 0.109,-3.443 0,-1.465 -0.049,-2.71 -0.146,-3.735 -0.099,-1.025 -0.269,-1.857 -0.513,-2.49 -0.245,-0.636 -0.538,-1.099 -0.879,-1.392 -0.342,-0.293 -0.732,-0.439 -1.172,-0.439 -0.732,0 -1.66,0.426 -2.783,1.281 -1.124,0.854 -2.576,1.806 -4.359,2.857 -1.782,1.049 -3.906,2.001 -6.371,2.856 -2.466,0.854 -5.409,1.282 -8.826,1.282 -3.761,0 -7.117,-0.769 -10.07,-2.307 -2.955,-1.538 -5.47,-3.735 -7.545,-6.592 -2.075,-2.856 -3.65,-6.311 -4.724,-10.364 -1.074,-4.053 -1.611,-8.618 -1.611,-13.696 0,-5.566 0.573,-10.389 1.722,-14.465 1.146,-4.077 2.783,-7.435 4.906,-10.072 2.125,-2.636 4.687,-4.601 7.691,-5.894 3.002,-1.295 6.383,-1.942 10.144,-1.942 3.417,0 6.372,0.403 8.862,1.209 2.49,0.805 4.626,1.696 6.408,2.672 1.783,0.977 3.247,1.856 4.395,2.637 1.147,0.781 2.039,1.172 2.674,1.172 0.487,0 0.879,-0.098 1.172,-0.293 C -1.025,7.641 -0.781,7.25 -0.586,6.664 -0.392,6.078 -0.245,5.26 -0.146,4.211 -0.049,3.16 0,1.758 0,0"
             style="fill:#373536;fill-opacity:1;fill-rule:nonzero;stroke:none"
             id="path48" /></g><g
           id="g50"
           transform="translate(1314.1914,275.791)"><path
             d="m 0,0 c 0,-0.488 -0.159,-0.928 -0.476,-1.318 -0.318,-0.393 -0.842,-0.709 -1.575,-0.953 -0.732,-0.245 -1.71,-0.44 -2.929,-0.586 -1.221,-0.147 -2.759,-0.219 -4.615,-0.219 -1.904,0 -3.478,0.072 -4.724,0.219 -1.244,0.146 -2.222,0.341 -2.93,0.586 -0.708,0.244 -1.221,0.56 -1.537,0.953 -0.318,0.39 -0.477,0.83 -0.477,1.318 l 0,38.305 -35.449,0 0,-38.305 c 0,-0.488 -0.146,-0.928 -0.439,-1.318 -0.293,-0.393 -0.806,-0.709 -1.538,-0.953 -0.733,-0.245 -1.71,-0.44 -2.93,-0.586 -1.221,-0.147 -2.783,-0.219 -4.688,-0.219 -1.856,0 -3.405,0.072 -4.651,0.219 -1.244,0.146 -2.233,0.341 -2.966,0.586 -0.732,0.244 -1.258,0.56 -1.575,0.953 -0.317,0.39 -0.476,0.83 -0.476,1.318 l 0,89.501 c 0,0.488 0.159,0.927 0.476,1.319 0.317,0.39 0.843,0.707 1.575,0.952 0.733,0.244 1.722,0.439 2.966,0.586 1.246,0.146 2.795,0.22 4.651,0.22 1.905,0 3.467,-0.074 4.688,-0.22 1.22,-0.147 2.197,-0.342 2.93,-0.586 0.732,-0.245 1.245,-0.562 1.538,-0.952 0.293,-0.392 0.439,-0.831 0.439,-1.319 l 0,-34.79 35.449,0 0,34.79 c 0,0.488 0.159,0.927 0.477,1.319 0.316,0.39 0.829,0.707 1.537,0.952 0.708,0.244 1.686,0.439 2.93,0.586 1.246,0.146 2.82,0.22 4.724,0.22 1.856,0 3.394,-0.074 4.615,-0.22 1.219,-0.147 2.197,-0.342 2.929,-0.586 0.733,-0.245 1.257,-0.562 1.575,-0.952 C -0.159,90.428 0,89.989 0,89.501 L 0,0 z"
             style="fill:#373536;fill-opacity:1;fill-rule:nonzero;stroke:none"
             id="path52" /></g><text
           transform="matrix(1,0,0,-1,1172.7988,174.4717)"
           id="text54"><tspan
             style="fill:#9bcb4b;fill-opacity:1;fill-rule:nonzero;stroke:none;font-family:Calibri;font-variant:normal;font-weight:bold;font-stretch:normal;font-size:70;writing-mode:lr;-inkscape-font-specification:Calibri-Bold"
             x="0 29.61 72.03 111.3"
             y="0"
             sodipodi:role="line"
             id="tspan56">LABS</tspan></text>
</g></g><g
       id="g58"><g
         id="g60"
         clip-path="url(#clipPath62)"><g
           id="g66"
           transform="translate(448.832,264.7305)"><path
             d="m 0,0 -213.393,0 c -14.174,0 -14.174,56.7 0,56.7 21.546,0 63.921,6.3 106.019,6.3 C -63.084,63 -19.101,56.7 0,56.7 14.175,56.7 14.175,0 0,0"
             style="fill:#c9cbcd;fill-opacity:1;fill-rule:nonzero;stroke:none"
             id="path68" /></g><g
           id="g70"
           transform="translate(330.0151,293.4844)"><path
             d="M 0,0 C -25.647,25.646 -11.866,236.438 14.538,236.438 27.822,236.438 46.721,92.855 30.154,4.308 28.754,-3.179 5.385,-5.385 0,0"
             style="fill:#9bcb4b;fill-opacity:1;fill-rule:nonzero;stroke:none"
             id="path72" /></g><g
           id="g74"
           transform="translate(316.4395,387.1089)"><path
             d="m 0,0 c -0.414,-30.655 1.396,-59.173 6,-77.067 6.76,-8.79 13.453,-15.72 19.551,-19.528 8.177,0.08 17.319,2.681 18.178,7.278 0.593,3.165 1.134,6.406 1.638,9.702 C 29.69,-44.584 13.85,-18.613 0,0"
             style="fill:#8ebe4b;fill-opacity:1;fill-rule:nonzero;stroke:none"
             id="path76" /></g><g
           id="g78"
           transform="translate(333.8384,288.2607)"><path
             d="M 0,0 C -35.44,13.346 -98.277,156.408 -66.231,136.231 -51.692,127.077 -15.637,91.517 18.846,11.308 21.017,6.261 5.142,-1.937 0,0"
             style="fill:#9bcb4b;fill-opacity:1;fill-rule:nonzero;stroke:none"
             id="path80" /></g><g
           id="g82"
           transform="translate(333.8892,302.0283)"><path
             d="m 0,0 c -1.639,-3.81 7.007,-9.414 13.555,-11.099 6.353,0.911 12.055,3.281 12.725,6.863 C 29.924,15.24 31.851,37.38 32.5,60.069 20.565,41.726 9.228,21.464 0,0"
             style="fill:#8ebe4b;fill-opacity:1;fill-rule:nonzero;stroke:none"
             id="path84" /></g><g
           id="g86"
           transform="translate(344.5454,263)"><path
             d="M 0,0 C 48.348,18.207 136.312,190.682 94.107,164.107 79.569,154.954 15.637,91.518 -18.846,11.308 -21.017,6.262 -5.142,-1.937 0,0"
             style="fill:#9bcb4b;fill-opacity:1;fill-rule:nonzero;stroke:none"
             id="path88" /></g><g
           id="g90"
           transform="translate(416.8525,140.9385)"><path
             d="m 0,0 c -40.56,-14.901 -101.853,-13.829 -141.454,0 -22.876,7.988 -37.799,114.692 -37.799,152.924 0,24.768 210.753,23.153 210.753,0 C 31.5,136.231 21.734,7.985 0,0"
             style="fill:#dadcdd;fill-opacity:1;fill-rule:nonzero;stroke:none"
             id="path92" /></g><g
           id="g94"
           transform="translate(448.832,264.7305)"><path
             d="m 0,0 c -22.984,0 -65.22,-3.15 -107.746,-3.15 -40.356,0 -80.972,3.15 -105.647,3.15 -14.174,0 -14.174,56.7 0,56.7 21.546,0 63.921,-6.3 106.019,-6.3 44.29,0 88.273,6.3 107.374,6.3 C 14.175,56.7 14.175,0 0,0"
             style="fill:#dadcdd;fill-opacity:1;fill-rule:nonzero;stroke:none"
             id="path96" /></g><g
           id="g98"
           transform="translate(341.7158,267.4492)"><path
             d="m 0,0 113.948,3.236 c -1.704,-3.663 -3.982,-5.955 -6.832,-5.955 -22.984,0 -65.22,-3.15 -107.746,-3.15 -40.356,0 -80.972,3.15 -105.646,3.15 -2.805,0 -5.055,2.22 -6.75,5.782 L 0,0 z"
             style="fill:#c9cbcd;fill-opacity:1;fill-rule:nonzero;stroke:none"
             id="path100" /></g><g
           id="g102"><g
             id="g104" /><g
             id="g110"><g
               clip-path="url(#clipPath106)"
               opacity="0.25"
               id="g112"><g
                 transform="translate(306.8989,140.9385)"
                 id="g114"><path
                   d="m 0,0 c -18.387,6.42 -31.636,75.354 -36.128,122.508 -1.312,0.014 -2.597,0.024 -3.831,0.024 -0.203,0 -0.401,0.015 -0.597,0.037 -0.061,0.007 -0.121,0.018 -0.181,0.028 -0.138,0.02 -0.273,0.047 -0.408,0.078 -0.064,0.015 -0.129,0.032 -0.194,0.05 -0.136,0.038 -0.271,0.082 -0.405,0.131 -0.052,0.019 -0.106,0.037 -0.157,0.058 -0.182,0.074 -0.363,0.155 -0.539,0.25 -0.024,0.013 -0.047,0.027 -0.071,0.041 -0.153,0.084 -0.303,0.177 -0.452,0.275 -0.056,0.037 -0.109,0.077 -0.163,0.115 -0.119,0.086 -0.237,0.174 -0.353,0.268 -0.055,0.044 -0.109,0.089 -0.164,0.136 -0.125,0.105 -0.247,0.22 -0.368,0.337 -0.039,0.037 -0.078,0.072 -0.116,0.111 -0.159,0.158 -0.314,0.326 -0.466,0.502 -0.03,0.035 -0.059,0.073 -0.089,0.11 -0.121,0.144 -0.242,0.295 -0.36,0.452 -0.047,0.061 -0.093,0.125 -0.139,0.188 -0.102,0.142 -0.204,0.286 -0.303,0.436 -0.044,0.066 -0.089,0.133 -0.132,0.202 -0.115,0.177 -0.228,0.361 -0.339,0.552 -0.023,0.038 -0.046,0.075 -0.07,0.116 -0.133,0.232 -0.264,0.474 -0.392,0.723 -0.029,0.055 -0.057,0.113 -0.085,0.169 -0.069,0.137 -0.139,0.275 -0.207,0.416 l 0.005,0 c -6.006,12.612 -5.048,43.319 2.876,50.551 -10.993,0.93 -20.468,1.628 -27.631,1.628 -11.372,0 -13.619,-36.486 -6.745,-50.919 l -0.005,0 c 0.068,-0.142 0.138,-0.278 0.207,-0.416 0.028,-0.056 0.056,-0.113 0.085,-0.17 0.128,-0.248 0.259,-0.49 0.392,-0.723 0.023,-0.039 0.047,-0.076 0.07,-0.117 0.111,-0.188 0.224,-0.373 0.339,-0.551 0.043,-0.068 0.088,-0.134 0.132,-0.201 0.099,-0.15 0.201,-0.293 0.303,-0.436 0.046,-0.063 0.092,-0.127 0.139,-0.189 0.118,-0.157 0.239,-0.307 0.36,-0.452 0.03,-0.036 0.059,-0.074 0.089,-0.108 0.152,-0.177 0.307,-0.345 0.466,-0.503 0.038,-0.039 0.077,-0.073 0.116,-0.11 0.121,-0.118 0.243,-0.232 0.368,-0.339 0.055,-0.046 0.109,-0.09 0.164,-0.135 0.116,-0.095 0.234,-0.184 0.353,-0.269 0.054,-0.038 0.107,-0.077 0.163,-0.114 0.149,-0.099 0.299,-0.191 0.452,-0.275 0.024,-0.013 0.047,-0.028 0.071,-0.041 0.176,-0.095 0.357,-0.177 0.539,-0.25 0.051,-0.022 0.105,-0.038 0.157,-0.058 0.134,-0.049 0.269,-0.093 0.405,-0.132 0.065,-0.017 0.13,-0.033 0.194,-0.048 0.135,-0.033 0.27,-0.059 0.408,-0.08 0.06,-0.008 0.12,-0.019 0.181,-0.026 0.196,-0.023 0.394,-0.038 0.597,-0.038 1.234,0 2.519,-0.01 3.831,-0.024 C -63.136,76.613 -49.887,6.42 -31.5,0 -7.25,-8.469 25.13,-12.143 55.906,-10.306 35.594,-9.1 16.021,-5.595 0,0"
                   style="fill:#ffffff;fill-opacity:1;fill-rule:nonzero;stroke:none"
                   id="path116" /></g></g></g></g><g
           id="g118"><g
             id="g120" /><g
             id="g130"><g
               clip-path="url(#clipPath122)"
               id="g132"><g
                 id="g134"><g
                   clip-path="url(#clipPath126)"
                   id="g136"><g
                     transform="translate(411.4224,187.6914)"
                     id="g138"><path
                       d="m 0,0 c -0.133,-0.012 -0.267,-0.027 -0.401,-0.047 0,0 -12.337,-2.325 -16.612,-2.926 l -0.08,-0.015 c -3.66,-0.501 -14.643,-1.462 -14.643,-1.462 -3.976,-0.556 -7.074,-4.185 -6.915,-8.093 l 0.038,-0.831 0.349,-7.539 c 0.175,-3.8 3.34,-6.485 7.16,-6.151 0.134,0.011 0.268,0.026 0.403,0.046 0,0 8.429,0.296 13.112,0.705 0.675,0.06 1.271,0.121 1.755,0.185 l 0.1,0.014 0.04,0.01 c 4.159,0.583 16.327,3.49 16.327,3.49 3.99,0.556 7.085,4.206 6.904,8.138 L 7.161,-6.143 C 6.986,-2.353 3.813,0.333 0,0"
                       style="fill:#ffffff;fill-opacity:1;fill-rule:nonzero;stroke:none"
                       id="path140" /></g></g></g></g></g></g><g
           id="g142"
           transform="translate(381.0908,175.3545)"><path
             d="M 0,0 16.72,1.368 28.98,3.465"
             style="fill:#c9cbcd;fill-opacity:1;fill-rule:nonzero;stroke:#c9cbcd;stroke-opacity:1;stroke-width:2;stroke-linecap:butt;stroke-linejoin:miter;stroke-miterlimit:4;stroke-dasharray:none"
             id="path144" /></g><g
           id="g146"
           transform="translate(381.7207,168.1084)"><path
             d="M 0,0 17.115,1.893 28.035,3.78"
             style="fill:#c3c2c3;fill-opacity:1;fill-rule:nonzero;stroke:#c3c2c3;stroke-opacity:1;stroke-width:2;stroke-linecap:butt;stroke-linejoin:miter;stroke-miterlimit:4;stroke-dasharray:none"
             id="path148" /></g></g></g></g></svg>